<?xml version="1.0" standalone="no"?>
<!DOCTYPE svg PUBLIC "-//W3C//DTD SVG 20010904//EN"
 "http://www.w3.org/TR/2001/REC-SVG-20010904/DTD/svg10.dtd">
<svg version="1.0" xmlns="http://www.w3.org/2000/svg"
 width="220.000000pt" height="57.000000pt" viewBox="0 0 220.000000 57.000000"
 preserveAspectRatio="xMidYMid meet">
<metadata>
Created by potrace 1.16, written by Peter Selinger 2001-2019
</metadata>
<g transform="translate(0.000000,57.000000) scale(0.100000,-0.100000)"
fill="#000000" stroke="none">
<path d="M340 463 c0 -3 45 -66 100 -140 90 -119 103 -133 130 -133 l30 0 0
140 0 140 -35 0 -35 0 0 -77 0 -78 -56 78 c-54 73 -58 77 -95 77 -22 0 -39 -3
-39 -7z"/>
<path d="M630 330 l0 -140 35 0 35 0 0 140 0 140 -35 0 -35 0 0 -140z"/>
<path d="M754 446 c-21 -18 -28 -32 -28 -61 0 -44 26 -68 92 -85 40 -10 63
-32 48 -47 -13 -13 -82 -2 -108 17 -36 27 -38 26 -38 -15 0 -28 5 -37 30 -50
37 -19 113 -19 150 0 27 14 33 14 60 0 16 -8 52 -15 80 -15 44 0 56 4 82 30
25 26 29 36 24 62 -9 45 -28 62 -91 82 -36 11 -55 22 -55 33 0 12 8 14 38 11
20 -3 45 -8 55 -12 14 -7 17 -3 17 27 0 39 -14 47 -83 47 -29 0 -46 -7 -68
-29 -54 -55 -31 -109 60 -139 60 -19 75 -38 40 -50 -38 -14 -70 -1 -116 48
-31 33 -59 52 -89 60 -51 15 -75 36 -50 46 17 6 48 2 79 -11 14 -6 17 -2 17
28 0 40 -11 47 -75 47 -32 0 -52 -7 -71 -24z"/>
<path d="M1170 330 l0 -140 30 0 30 0 0 140 0 140 -30 0 -30 0 0 -140z"/>
<path d="M1323 450 c-87 -52 -83 -198 6 -245 98 -50 211 16 211 123 0 85 -56
142 -140 142 -27 0 -58 -8 -77 -20z m117 -50 c10 -5 23 -24 29 -41 9 -26 8
-39 -6 -68 -17 -33 -21 -36 -63 -36 -42 0 -46 3 -63 36 -14 29 -15 42 -7 65
19 50 65 68 110 44z"/>
<path d="M1570 330 l0 -140 30 0 29 0 3 83 3 82 59 -82 c50 -70 64 -83 88 -83
l28 0 0 140 0 140 -30 0 -29 0 -3 -77 -3 -78 -55 77 c-49 68 -59 77 -87 77
l-33 1 0 -140z"/>
</g>
</svg>
